<mxfile host="app.diagrams.net" modified="2023-06-09T11:17:50.853Z" agent="Mozilla/5.0 (Windows NT 10.0; Win64; x64) AppleWebKit/537.36 (KHTML, like Gecko) Chrome/114.0.0.0 Safari/537.36" etag="oF-gMK771cjkYJQftGdV" version="21.3.8" type="github">
  <diagram id="prtHgNgQTEPvFCAcTncT" name="Page-1">
    <mxGraphModel dx="636" dy="347" grid="1" gridSize="10" guides="1" tooltips="1" connect="1" arrows="1" fold="1" page="1" pageScale="1" pageWidth="827" pageHeight="1169" math="0" shadow="0">
      <root>
        <mxCell id="0" />
        <mxCell id="1" parent="0" />
        <mxCell id="vByld5ngSPKmrsK2Zb0a-1" value="6-1-渠道管理流程" style="swimlane;childLayout=stackLayout;resizeParent=1;resizeParentMax=0;startSize=20;html=1;" vertex="1" parent="1">
          <mxGeometry x="70.00000000000045" y="30" width="490" height="830" as="geometry" />
        </mxCell>
        <mxCell id="vByld5ngSPKmrsK2Zb0a-2" value="渠道" style="swimlane;startSize=20;html=1;" vertex="1" parent="vByld5ngSPKmrsK2Zb0a-1">
          <mxGeometry y="20" width="170" height="810" as="geometry" />
        </mxCell>
        <mxCell id="vByld5ngSPKmrsK2Zb0a-13" value="" style="edgeStyle=orthogonalEdgeStyle;rounded=0;orthogonalLoop=1;jettySize=auto;html=1;" edge="1" parent="vByld5ngSPKmrsK2Zb0a-2" source="vByld5ngSPKmrsK2Zb0a-10" target="vByld5ngSPKmrsK2Zb0a-12">
          <mxGeometry relative="1" as="geometry" />
        </mxCell>
        <mxCell id="vByld5ngSPKmrsK2Zb0a-10" value="采购意向" style="rounded=0;whiteSpace=wrap;html=1;" vertex="1" parent="vByld5ngSPKmrsK2Zb0a-2">
          <mxGeometry x="17" y="270" width="136" height="30" as="geometry" />
        </mxCell>
        <mxCell id="vByld5ngSPKmrsK2Zb0a-12" value="议价下单" style="rounded=0;whiteSpace=wrap;html=1;" vertex="1" parent="vByld5ngSPKmrsK2Zb0a-2">
          <mxGeometry x="17" y="360" width="136" height="30" as="geometry" />
        </mxCell>
        <mxCell id="vByld5ngSPKmrsK2Zb0a-19" value="收货确认&lt;br&gt;（自提或物流---线下）" style="rounded=0;whiteSpace=wrap;html=1;" vertex="1" parent="vByld5ngSPKmrsK2Zb0a-2">
          <mxGeometry x="17" y="640" width="136" height="30" as="geometry" />
        </mxCell>
        <mxCell id="vByld5ngSPKmrsK2Zb0a-3" value="平台" style="swimlane;startSize=20;html=1;" vertex="1" parent="vByld5ngSPKmrsK2Zb0a-1">
          <mxGeometry x="170" y="20" width="160" height="810" as="geometry" />
        </mxCell>
        <mxCell id="vByld5ngSPKmrsK2Zb0a-9" value="" style="edgeStyle=orthogonalEdgeStyle;rounded=0;orthogonalLoop=1;jettySize=auto;html=1;" edge="1" parent="vByld5ngSPKmrsK2Zb0a-3" source="vByld5ngSPKmrsK2Zb0a-6" target="vByld5ngSPKmrsK2Zb0a-8">
          <mxGeometry relative="1" as="geometry" />
        </mxCell>
        <mxCell id="vByld5ngSPKmrsK2Zb0a-6" value="汇总" style="rounded=0;whiteSpace=wrap;html=1;" vertex="1" parent="vByld5ngSPKmrsK2Zb0a-3">
          <mxGeometry x="12" y="130" width="136" height="30" as="geometry" />
        </mxCell>
        <mxCell id="vByld5ngSPKmrsK2Zb0a-8" value="展示产品及库存" style="rounded=0;whiteSpace=wrap;html=1;" vertex="1" parent="vByld5ngSPKmrsK2Zb0a-3">
          <mxGeometry x="12" y="205" width="136" height="30" as="geometry" />
        </mxCell>
        <mxCell id="vByld5ngSPKmrsK2Zb0a-17" value="" style="edgeStyle=orthogonalEdgeStyle;rounded=0;orthogonalLoop=1;jettySize=auto;html=1;" edge="1" parent="vByld5ngSPKmrsK2Zb0a-3" source="vByld5ngSPKmrsK2Zb0a-14" target="vByld5ngSPKmrsK2Zb0a-16">
          <mxGeometry relative="1" as="geometry" />
        </mxCell>
        <mxCell id="vByld5ngSPKmrsK2Zb0a-14" value="采摘交割（线下）" style="rounded=0;whiteSpace=wrap;html=1;" vertex="1" parent="vByld5ngSPKmrsK2Zb0a-3">
          <mxGeometry x="12" y="450" width="136" height="30" as="geometry" />
        </mxCell>
        <mxCell id="vByld5ngSPKmrsK2Zb0a-16" value="选择会员&lt;br&gt;扣减库存" style="rounded=0;whiteSpace=wrap;html=1;" vertex="1" parent="vByld5ngSPKmrsK2Zb0a-3">
          <mxGeometry x="12" y="535" width="136" height="30" as="geometry" />
        </mxCell>
        <mxCell id="vByld5ngSPKmrsK2Zb0a-4" value="会员" style="swimlane;startSize=20;html=1;" vertex="1" parent="vByld5ngSPKmrsK2Zb0a-1">
          <mxGeometry x="330" y="20" width="160" height="810" as="geometry" />
        </mxCell>
        <mxCell id="vByld5ngSPKmrsK2Zb0a-5" value="设置农产品的代销方式&lt;br&gt;以及可销售数量&lt;br&gt;设定销售价格范围" style="rounded=0;whiteSpace=wrap;html=1;" vertex="1" parent="vByld5ngSPKmrsK2Zb0a-4">
          <mxGeometry x="14" y="50" width="136" height="50" as="geometry" />
        </mxCell>
        <mxCell id="vByld5ngSPKmrsK2Zb0a-18" value="通知" style="rounded=0;whiteSpace=wrap;html=1;" vertex="1" parent="vByld5ngSPKmrsK2Zb0a-4">
          <mxGeometry x="14" y="640" width="136" height="30" as="geometry" />
        </mxCell>
        <mxCell id="vByld5ngSPKmrsK2Zb0a-7" style="edgeStyle=orthogonalEdgeStyle;rounded=0;orthogonalLoop=1;jettySize=auto;html=1;entryX=0.5;entryY=0;entryDx=0;entryDy=0;" edge="1" parent="vByld5ngSPKmrsK2Zb0a-1" source="vByld5ngSPKmrsK2Zb0a-5" target="vByld5ngSPKmrsK2Zb0a-6">
          <mxGeometry relative="1" as="geometry" />
        </mxCell>
        <mxCell id="vByld5ngSPKmrsK2Zb0a-11" style="edgeStyle=orthogonalEdgeStyle;rounded=0;orthogonalLoop=1;jettySize=auto;html=1;" edge="1" parent="vByld5ngSPKmrsK2Zb0a-1" source="vByld5ngSPKmrsK2Zb0a-8" target="vByld5ngSPKmrsK2Zb0a-10">
          <mxGeometry relative="1" as="geometry" />
        </mxCell>
        <mxCell id="vByld5ngSPKmrsK2Zb0a-15" style="edgeStyle=orthogonalEdgeStyle;rounded=0;orthogonalLoop=1;jettySize=auto;html=1;entryX=0.5;entryY=0;entryDx=0;entryDy=0;" edge="1" parent="vByld5ngSPKmrsK2Zb0a-1" source="vByld5ngSPKmrsK2Zb0a-12" target="vByld5ngSPKmrsK2Zb0a-14">
          <mxGeometry relative="1" as="geometry" />
        </mxCell>
        <mxCell id="vByld5ngSPKmrsK2Zb0a-20" style="edgeStyle=orthogonalEdgeStyle;rounded=0;orthogonalLoop=1;jettySize=auto;html=1;" edge="1" parent="vByld5ngSPKmrsK2Zb0a-1" source="vByld5ngSPKmrsK2Zb0a-16" target="vByld5ngSPKmrsK2Zb0a-19">
          <mxGeometry relative="1" as="geometry" />
        </mxCell>
        <mxCell id="vByld5ngSPKmrsK2Zb0a-21" style="edgeStyle=orthogonalEdgeStyle;rounded=0;orthogonalLoop=1;jettySize=auto;html=1;entryX=0.543;entryY=0.076;entryDx=0;entryDy=0;entryPerimeter=0;" edge="1" parent="vByld5ngSPKmrsK2Zb0a-1" source="vByld5ngSPKmrsK2Zb0a-16" target="vByld5ngSPKmrsK2Zb0a-18">
          <mxGeometry relative="1" as="geometry" />
        </mxCell>
      </root>
    </mxGraphModel>
  </diagram>
</mxfile>
